HIERARCHY
ROOT Hips
{
  OFFSET -35.4901 99.2528 17.4586
  CHANNELS 6 Xposition Yposition Zposition Zrotation Xrotation Yrotation
  JOINT LeftUpLeg
  {
    OFFSET 8.64259 1.95398 -2.38835
    CHANNELS 3 Zrotation Xrotation Yrotation
    JOINT LeftLeg
    {
      OFFSET 43.7702 0 0
      CHANNELS 3 Zrotation Xrotation Yrotation
      JOINT LeftFoot
      {
        OFFSET 40.6238 0 0
        CHANNELS 3 Zrotation Xrotation Yrotation
        JOINT LeftToeBase
        {
          OFFSET 12.7242 0 0
          CHANNELS 3 Zrotation Xrotation Yrotation
          End Site
          {
            OFFSET 0 0 0
          }
        }
      }
    }
  }
  JOINT RightUpLeg
  {
    OFFSET -8.2249 1.95398 -2.59336
    CHANNELS 3 Zrotation Xrotation Yrotation
    JOINT RightLeg
    {
      OFFSET 43.5653 0 0
      CHANNELS 3 Zrotation Xrotation Yrotation
      JOINT RightFoot
      {
        OFFSET 40.6238 0 0
        CHANNELS 3 Zrotation Xrotation Yrotation
        JOINT RightToeBase
        {
          OFFSET 12.7242 0 0
          CHANNELS 3 Zrotation Xrotation Yrotation
          End Site
          {
            OFFSET 0 0 0
          }
        }
      }
    }
  }
  JOINT Spine
  {
    OFFSET 0.165834 0.87714 6.61349
    CHANNELS 3 Zrotation Xrotation Yrotation
    JOINT Spine1
    {
      OFFSET 7.38963 1.71661e-005 0
      CHANNELS 3 Zrotation Xrotation Yrotation
      JOINT Spine2
      {
        OFFSET 11.9445 1.14441e-005 0
        CHANNELS 3 Zrotation Xrotation Yrotation
        JOINT Spine3
        {
          OFFSET 14.7254 4.19617e-005 0
          CHANNELS 3 Zrotation Xrotation Yrotation
          JOINT Spine4
          {
            OFFSET 10.9679 0 0
            CHANNELS 3 Zrotation Xrotation Yrotation
            JOINT RightShoulder
            {
              OFFSET 2.46616 -1.6653 3.69651
              CHANNELS 3 Zrotation Xrotation Yrotation
              JOINT RightArm
              {
                OFFSET 13.0012 0 0
                CHANNELS 3 Zrotation Xrotation Yrotation
                JOINT RightForeArm
                {
                  OFFSET 28.7848 1.52588e-005 0
                  CHANNELS 3 Zrotation Xrotation Yrotation
                  JOINT RightHand
                  {
                    OFFSET 26.5688 1.52588e-005 0
                    CHANNELS 3 Zrotation Xrotation Yrotation
                    End Site
                    {
                      OFFSET 0 0 0
                    }
                  }
                }
              }
            }
            JOINT LeftShoulder
            {
              OFFSET 2.38034 -1.29275 -3.7523
              CHANNELS 3 Zrotation Xrotation Yrotation
              JOINT LeftArm
              {
                OFFSET 16.3182 6.10351e-005 0
                CHANNELS 3 Zrotation Xrotation Yrotation
                JOINT LeftForeArm
                {
                  OFFSET 27.0901 0 0
                  CHANNELS 3 Zrotation Xrotation Yrotation
                  JOINT LeftHand
                  {
                    OFFSET 24.5451 1.52588e-005 0
                    CHANNELS 3 Zrotation Xrotation Yrotation
                    End Site
                    {
                      OFFSET 0 0 0
                    }
                  }
                }
              }
            }
            JOINT Neck
            {
              OFFSET 5.0226 -0.0266342 0
              CHANNELS 3 Zrotation Xrotation Yrotation
              JOINT Head
              {
                OFFSET 6.69364 2.86102e-005 0
                CHANNELS 3 Zrotation Xrotation Yrotation
                End Site
                {
                  OFFSET 0 0 0
                }
              }
            }
          }
        }
      }
    }
  }
}
MOTION
Frames:	18
Frame Time:	0.0416667
39.0379 99.8643 26.4203 -173.412 -81.3049 -174.917 -177.195 -6.42163 90.1955 -10.4468 4.15772 0.550189 70.9498 4.93181 -3.31422 14.7966 -2.36073 4.15722 167.543 -6.45919 83.7105 -9.0071 -7.17426 -1.02623 68.1269 -4.16372 1.78595 24.8319 -0.882607 2.68423 0.161541 8.03532 -89.9132 10.8031 0.361792 0.139087 -0.867825 0.367564 0.123027 -23.4032 0.303265 0.241388 -3.39058 0.303259 0.241385 87.4787 -31.4983 -111.054 39.0871 -14.5388 -6.96324 4.36776 -23.8479 -14.3744 -22.2011 -0.158353 -7.22092 -85.6398 -48.7137 85.0907 -24.9486 19.2868 -20.4266 -0.982603 10.5555 -4.04741 1.01666 -0.166852 -6.94948 4.92323 -1.70391 -3.03066 -3.17479 -1.13648 1.24913 
38.8655 99.8977 26.3793 -174.681 -81.7597 -175.731 -176.637 -5.65837 91.023 -10.899 4.94985 0.254378 71.0735 4.95055 -3.49307 15.1676 -2.92199 4.89058 168.229 -6.39529 84.5784 -8.57547 -6.96596 -1.1513 67.0394 -3.77238 1.17093 25.0533 -1.10559 3.21728 0.145492 7.98125 -89.9589 10.9113 0.30874 0.0525983 -0.759585 0.310748 0.038954 -23.295 0.27865 0.142955 -3.28233 0.278647 0.142947 87.5611 -31.6214 -110.843 39.5481 -14.2254 -7.02954 4.16633 -24.4598 -14.2887 -23.2004 -0.256145 -6.65967 -85.6678 -48.7417 85.0518 -23.9641 20.5978 -20.3482 -1.60007 9.78376 -4.67098 1.54201 -0.146934 -6.01024 4.19175 -1.76962 -3.62819 -1.86828 -1.10135 2.28763 
38.8849 99.8914 26.3322 -174.813 -82.1164 -176.213 -176.95 -5.38742 90.5605 -10.7648 4.85096 0.304609 71.0117 4.95311 -3.33652 15.102 -3.08585 5.10516 168.031 -5.81566 84.2656 -8.82159 -7.12795 -1.0871 67.2535 -3.79891 1.28988 24.7668 -0.749808 2.36562 0.160891 7.93725 -89.9433 10.9993 0.346606 0.0797675 -0.671613 0.349786 0.0644263 -23.2071 0.306607 0.180253 -3.1944 0.306609 0.180245 87.7733 -31.5257 -110.479 39.6063 -14.1923 -6.88585 4.07756 -24.7042 -14.4034 -23.2185 -0.273673 -6.59752 -85.9578 -48.8374 84.6231 -23.8906 20.7496 -20.465 -1.84824 9.20194 -4.40649 1.56057 -0.190054 -7.26996 3.89797 -1.80043 -3.31177 -1.37486 -1.18681 1.9008 
38.9053 99.9066 26.3153 -174.667 -82.1412 -176.066 -176.916 -5.35059 90.5823 -10.7397 4.85095 0.248227 70.8798 4.89487 -3.4795 15.1927 -3.14557 5.18448 168.046 -5.70273 84.2621 -8.93728 -7.18319 -1.1062 67.2818 -3.83433 1.00148 24.6693 -1.02852 3.04845 0.181267 7.92718 -89.9777 11.0195 0.371239 0.008855 -0.651385 0.371286 -0.00749666 -23.1869 0.351418 0.120022 -3.17429 0.351423 0.120025 88.0096 -31.1858 -110.169 39.7471 -13.9777 -6.80746 4.02888 -26.3013 -14.4736 -22.5921 -0.278128 -6.86158 -86.114 -49.3344 84.46 -23.635 20.6699 -20.5747 -1.92491 9.22966 -4.27203 2.13296 -0.197525 -7.08872 3.69536 -1.83442 -2.77362 -1.31161 -1.31981 1.56146 
38.9039 99.9009 26.3302 -175.004 -82.1106 -176.382 -176.894 -5.32911 90.5898 -10.8844 4.91212 0.242228 71.1009 4.99484 -3.21305 14.7234 -3.02857 5.02772 168.012 -5.77123 84.2607 -8.9319 -7.20554 -1.06969 67.2547 -3.82186 1.08497 24.8028 -0.937956 2.82111 0.175508 7.93141 -89.9756 11.0111 0.360739 0.0140589 -0.659839 0.361005 -0.001841 -23.1954 0.33983 0.121821 -3.18271 0.339835 0.121824 87.9757 -31.2165 -110.221 39.7958 -13.7965 -6.86471 4.07685 -26.5435 -14.3376 -22.746 -0.27979 -6.8776 -86.0282 -49.2443 84.5771 -23.569 20.8298 -20.6418 -1.93898 9.42335 -4.40954 2.03388 -0.195528 -7.09875 3.823 -1.79489 -2.83829 -1.45279 -1.26821 1.6283 
38.8865 99.9051 26.3438 -175.23 -82.039 -176.571 -176.869 -5.32959 90.6551 -11.0169 5.04195 0.274754 70.9935 4.93114 -3.32131 15.1665 -3.02233 5.02261 168.01 -5.93992 84.3146 -8.78302 -7.34087 -1.04011 67.1887 -3.83505 0.8661 24.8043 -0.750646 2.36481 0.185961 7.93076 -89.984 11.0036 0.377681 -0.00416577 -0.667258 0.377137 -0.0207949 -23.2028 0.361466 0.109536 -3.19019 0.361476 0.109539 87.9988 -31.237 -110.168 39.7252 -13.8157 -6.78762 4.05368 -27.0652 -14.3984 -22.5284 -0.273381 -7.01781 -86.1386 -49.2973 84.417 -23.4617 20.9178 -20.683 -2.06762 8.82234 -4.30973 1.5124 -0.193434 -7.40146 3.74869 -1.90919 -2.76673 -1.33044 -1.39397 1.45542 
38.9076 99.8939 26.3634 -175.104 -82.0633 -176.487 -176.902 -5.42758 90.5658 -10.815 5.08479 0.259541 71.0786 5.01552 -2.97414 14.7462 -2.96504 4.94499 168.029 -5.8088 84.2538 -8.98714 -7.17919 -1.10131 67.2654 -3.824 1.063 24.735 -0.889552 2.70664 0.189949 7.92924 -89.9726 11.016 0.390891 0.0171107 -0.654913 0.391262 -0.0001197 -23.1905 0.367674 0.133799 -3.17786 0.367673 0.133794 87.9697 -31.361 -110.172 39.6514 -13.9679 -6.84163 4.09992 -27.1911 -14.2884 -22.9072 -0.275998 -6.99308 -86.1605 -49.1732 84.365 -23.5483 20.9002 -20.6825 -1.99239 9.17623 -4.34198 1.20414 -0.180655 -7.25705 3.84553 -1.91591 -2.96558 -1.44033 -1.36482 1.57122 
38.8905 99.907 26.4018 -175.572 -81.9194 -176.865 -176.84 -5.57942 90.6944 -10.8514 5.08515 0.302566 71.0699 4.98206 -3.2592 14.9268 -3.08142 5.09797 167.999 -6.10638 84.3133 -8.81501 -7.37224 -1.04522 67.0592 -3.74286 1.03381 25.063 -0.722685 2.27546 0.179128 7.94195 -89.9805 10.99 0.36568 0.00390664 -0.680866 0.365499 -0.0121959 -23.2164 0.347591 0.113626 -3.20376 0.347602 0.113633 87.855 -31.3648 -110.39 39.6857 -13.7426 -6.7783 3.98117 -27.6652 -14.3268 -22.6206 -0.287077 -7.02458 -86.052 -49.2354 84.5393 -23.3126 21.0905 -20.6312 -2.08939 8.74053 -4.50655 1.3349 -0.187366 -7.35862 3.87213 -1.85797 -3.01283 -1.2751 -1.29579 1.65828 
38.8957 99.9083 26.4342 -176.082 -81.8552 -177.378 -176.796 -5.55495 90.7213 -11.0736 5.16877 0.269979 71.2144 5.00904 -3.20212 14.6985 -2.86244 4.81124 168.041 -6.31281 84.308 -8.52898 -6.83666 -1.12013 67.3782 -3.9746 0.679919 24.4863 -1.3963 3.95023 0.184483 7.95443 -89.9856 10.965 0.373981 -0.00684747 -0.705862 0.373323 -0.0233209 -23.2414 0.358747 0.105867 -3.22878 0.358755 0.105861 87.9968 -31.449 -110.083 39.6057 -13.9912 -6.90392 4.06465 -26.5709 -14.2859 -22.5191 -0.210407 -7.31514 -86.1786 -49.0899 84.3245 -23.6523 20.7979 -20.6817 -1.9787 8.99689 -4.27091 1.68989 -0.191556 -7.21799 4.04705 -1.95195 -3.10863 -1.43791 -1.36829 1.83582 
38.8825 99.9083 26.4285 -176.147 -81.9378 -177.495 -176.759 -5.51309 90.7338 -10.9586 5.26151 0.197699 71.0351 4.96536 -3.31699 14.973 -3.1155 5.14292 167.986 -6.05826 84.271 -8.91583 -7.32514 -1.05079 67.1011 -3.74561 1.15895 25.0183 -0.54818 1.85371 0.17757 7.94232 -89.9785 10.9892 0.363501 0.00810054 -0.681666 0.363508 -0.00792366 -23.2172 0.344253 0.116962 -3.20455 0.344263 0.116967 87.9168 -31.4998 -110.215 39.5385 -13.8408 -6.88772 4.3053 -27.4799 -14.107 -22.8825 -0.217238 -7.38177 -86.1348 -49.1229 84.3965 -23.4435 21.0407 -20.598 -2.0262 9.04205 -4.56216 1.50852 -0.172631 -6.78959 4.02615 -1.92041 -3.20659 -1.57051 -1.32278 1.92993 
38.8936 99.9125 26.4403 -175.903 -81.825 -177.192 -176.775 -5.6341 90.7506 -10.9761 5.11014 0.256282 71.1284 4.98775 -3.31699 14.7357 -3.04161 5.04487 167.988 -6.24901 84.2975 -8.78216 -7.35649 -1.05007 67.1465 -3.80144 0.94614 24.8922 -0.706442 2.24977 0.185203 7.95418 -89.9863 10.9658 0.375077 -0.00837154 -0.70506 0.374351 -0.024872 -23.2406 0.360257 0.104748 -3.22798 0.360252 0.104742 87.9227 -31.4427 -110.228 39.587 -13.8725 -6.85394 4.26021 -26.7169 -14.1601 -22.6108 -0.213086 -7.31088 -86.1537 -49.1369 84.3697 -23.4743 20.9219 -20.5927 -2.03346 8.95176 -4.43081 1.65485 -0.17385 -6.73169 3.95317 -1.8689 -3.20549 -1.52213 -1.27402 1.83988 
38.9025 99.9083 26.4463 -176.157 -81.8454 -177.514 -176.807 -5.61598 90.6733 -10.9622 5.33636 0.258353 71.0077 4.96107 -3.15078 14.9755 -2.93192 4.90306 167.968 -6.21513 84.2234 -8.74057 -7.0844 -1.09037 67.2536 -3.87789 0.577033 24.941 -1.39439 3.9248 0.186678 7.95122 -89.9837 10.9657 0.379248 -0.00356559 -0.705195 0.378721 -0.0202578 -23.2408 0.362779 0.110581 -3.22814 0.36278 0.110572 87.9776 -31.5037 -110.097 39.502 -13.9154 -6.91016 4.3616 -26.9079 -14.013 -23.0523 -0.190622 -7.42874 -86.0965 -49.321 84.4846 -23.1887 21.1466 -20.6599 -2.13525 8.86201 -4.55438 1.40992 -0.177377 -7.00778 3.96371 -1.84745 -3.13914 -1.56142 -1.26489 1.814 
38.8909 99.901 26.4415 -176.367 -81.8342 -177.655 -176.698 -5.6318 90.8198 -10.9609 5.36705 0.192278 71.1997 5.02345 -3.33227 14.8435 -3.15128 5.18873 168.01 -6.28141 84.3277 -8.7531 -7.32826 -1.06276 67.1619 -3.8117 0.832883 24.7778 -0.808518 2.50774 0.178471 7.96082 -89.9876 10.9522 0.361116 -0.00951246 -0.718659 0.360355 -0.0254104 -23.2542 0.34728 0.0994657 -3.24155 0.347277 0.0994526 87.9287 -31.5923 -110.153 39.3658 -14.0148 -6.98557 4.42484 -26.8975 -13.9401 -22.8498 -0.169584 -7.5729 -86.0258 -49.1854 84.5714 -23.4797 20.8529 -20.6491 -1.91763 9.28716 -4.51065 1.56839 -0.174299 -6.80475 4.14254 -1.83233 -3.229 -1.68417 -1.23107 1.82353 
38.9178 99.9108 26.4214 -175.73 -81.8706 -177.111 -176.854 -5.64465 90.6082 -10.8389 5.02897 0.252625 71.0609 4.98842 -3.22937 14.6759 -2.95876 4.93633 167.97 -6.06358 84.1994 -8.9634 -7.08317 -1.09763 67.2892 -3.84653 0.903946 24.7782 -1.11408 3.25043 0.190466 7.95199 -89.9812 10.97 0.387913 0.000487643 -0.700923 0.387556 -0.016586 -23.2365 0.369827 0.117047 -3.22386 0.369835 0.117058 87.9132 -31.6445 -110.161 39.3241 -13.9571 -6.92243 4.39162 -27.0439 -13.8672 -22.8774 -0.15564 -7.6763 -86.0676 -49.2398 84.5163 -23.2443 21.0336 -20.6234 -2.02559 9.10258 -4.59041 1.27081 -0.181104 -7.21611 4.0999 -1.7838 -2.94765 -1.72129 -1.23532 1.35961 
38.8892 99.9082 26.4281 -176.88 -81.94 -178.22 -176.772 -5.53504 90.7388 -10.9011 5.18899 0.217673 71.0897 4.97797 -3.52669 14.9165 -3.25484 5.32609 167.975 -6.0851 84.2798 -8.90357 -7.23862 -1.03582 67.1678 -3.78868 0.996857 24.8491 -0.61852 2.04058 0.17863 7.94598 -89.996 10.982 0.357516 -0.0260872 -0.688939 0.356023 -0.0418005 -23.2245 0.348823 0.0825705 -3.21183 0.348828 0.0825699 88.0144 -31.489 -110.032 39.4366 -14.024 -6.97458 4.44632 -27.1164 -13.9344 -23.0181 -0.178855 -7.53496 -86.1219 -49.3975 84.4576 -23.1319 20.9794 -20.6908 -1.96896 9.6447 -4.58252 0.986109 -0.159018 -6.69649 4.01522 -1.8394 -3.04255 -1.5054 -1.27189 1.69628 
38.8789 99.9055 26.4233 -177.399 -81.9045 -178.663 -176.725 -5.44665 90.8438 -11.1164 5.33856 0.243752 71.0396 4.9274 -3.52387 15.219 -3.15951 5.20305 168.029 -6.30597 84.3536 -8.56285 -6.73046 -1.05718 67.3179 -3.91624 0.893216 24.5841 -1.20889 3.49017 0.176428 7.94989 -90.0054 10.9742 0.348786 -0.0438602 -0.696703 0.346514 -0.0591724 -23.2322 0.345841 0.0629925 -3.21959 0.345837 0.0629892 87.9793 -31.5036 -110.093 39.4283 -14.0739 -6.92843 4.29873 -26.5438 -14.0763 -22.9961 -0.211629 -7.25561 -86.1489 -49.3966 84.4167 -23.0456 21.0891 -20.6782 -2.07331 9.14129 -4.61875 1.33853 -0.172425 -6.88061 4.13536 -1.85339 -2.93752 -1.71336 -1.30404 1.58137 
38.8423 99.9045 26.4286 -176.841 -81.7789 -177.98 -176.596 -5.56909 91.0186 -11.1713 5.36033 0.206372 71.2899 5.02621 -3.3837 14.6505 -3.08573 5.10163 168.167 -6.51804 84.5137 -8.42196 -6.56581 -1.1158 67.0418 -3.80954 0.941752 24.945 -1.36303 3.85078 0.182099 7.96064 -90.0024 10.9527 0.361464 -0.0391088 -0.71822 0.359402 -0.054987 -23.2538 0.356511 0.071338 -3.24113 0.356511 0.0713367 87.9059 -31.6763 -110.161 39.3716 -13.9814 -6.91759 4.20578 -27.2829 -14.1694 -22.8815 -0.197135 -7.4714 -86.1072 -49.1931 84.449 -23.1814 20.9516 -20.6598 -1.94786 9.53228 -4.53826 1.0696 -0.17059 -7.03413 4.02672 -1.95689 -3.58069 -1.67084 -1.29478 2.11084 
38.8594 99.905 26.4042 -177.502 -81.9046 -178.738 -176.669 -5.36169 90.8938 -11.2502 5.64859 0.208922 71.1022 4.97465 -3.07402 15.0261 -2.81017 4.74397 168.077 -6.32426 84.4099 -8.48128 -6.69476 -1.06726 67.2519 -3.92799 0.489348 24.6621 -1.5624 4.34693 0.16904 7.94847 -90.0049 10.977 0.334305 -0.0415207 -0.693904 0.332164 -0.0562022 -23.2294 0.331328 0.0608667 -3.21676 0.331333 0.0608725 87.9699 -31.5834 -110.078 39.3681 -14.189 -6.92577 4.23046 -26.2939 -14.1345 -23.1609 -0.188506 -7.33541 -86.0693 -49.3426 84.5292 -23.1343 21.0585 -20.6642 -2.01411 9.26069 -4.63626 1.07617 -0.171813 -7.06945 3.97142 -1.86738 -3.11399 -1.51403 -1.28805 1.7602 
